{
  "accessors": [
    {
      "bufferView": 0,
      "componentType": 5126,
      "count": 994,
      "max": [
        0.403929740190506,
        0.7728094458580017,
        0.5658469796180725
      ],
      "min": [
        -0.40377822518348694,
        -0.7821467518806458,
        0.056064870208501816
      ],
      "name": "taxi04/POSITION",
      "type": "VEC3"
    },
    {
      "bufferView": 0,
      "byteOffset": 12,
      "componentType": 5126,
      "count": 994,
      "name": "taxi04/NORMAL",
      "type": "VEC3"
    },
    {
      "bufferView": 0,
      "byteOffset": 24,
      "componentType": 5126,
      "count": 994,
      "name": "taxi04/TEXCOORD_0",
      "type": "VEC2"
    },
    {
      "bufferView": 1,
      "componentType": 5125,
      "count": 1434,
      "name": "taxi04/INDICES",
      "type": "SCALAR"
    },
    {
      "bufferView": 2,
      "componentType": 5126,
      "count": 16,
      "max": [
        0.07092153280973434,
        0.03857593610882759,
        0.34600043296813965
      ],
      "min": [
        -0.07092145085334778,
        -0.03857601061463356,
        -0.35019394755363464
      ],
      "name": "light1/POSITION",
      "type": "VEC3"
    },
    {
      "bufferView": 2,
      "byteOffset": 12,
      "componentType": 5126,
      "count": 16,
      "name": "light1/NORMAL",
      "type": "VEC3"
    },
    {
      "bufferView": 2,
      "byteOffset": 24,
      "componentType": 5126,
      "count": 16,
      "name": "light1/TEXCOORD_0",
      "type": "VEC2"
    },
    {
      "bufferView": 3,
      "componentType": 5125,
      "count": 36,
      "name": "light1/INDICES",
      "type": "SCALAR"
    },
    {
      "bufferView": 4,
      "componentType": 5126,
      "count": 132,
      "max": [
        0.07282020896673203,
        0.12111639976501465,
        0.12131742388010025
      ],
      "min": [
        -0.07281967252492905,
        -0.12111646682024002,
        -0.1213175356388092
      ],
      "name": "tyre2/POSITION",
      "type": "VEC3"
    },
    {
      "bufferView": 4,
      "byteOffset": 12,
      "componentType": 5126,
      "count": 132,
      "name": "tyre2/NORMAL",
      "type": "VEC3"
    },
    {
      "bufferView": 4,
      "byteOffset": 24,
      "componentType": 5126,
      "count": 132,
      "name": "tyre2/TEXCOORD_0",
      "type": "VEC2"
    },
    {
      "bufferView": 5,
      "componentType": 5125,
      "count": 132,
      "name": "tyre2/INDICES",
      "type": "SCALAR"
    },
    {
      "bufferView": 6,
      "componentType": 5126,
      "count": 132,
      "max": [
        0.0728197768330574,
        0.12131738662719727,
        0.12111649662256241
      ],
      "min": [
        -0.07282017171382904,
        -0.12131738662719727,
        -0.12111657112836838
      ],
      "name": "tyre1/POSITION",
      "type": "VEC3"
    },
    {
      "bufferView": 6,
      "byteOffset": 12,
      "componentType": 5126,
      "count": 132,
      "name": "tyre1/NORMAL",
      "type": "VEC3"
    },
    {
      "bufferView": 6,
      "byteOffset": 24,
      "componentType": 5126,
      "count": 132,
      "name": "tyre1/TEXCOORD_0",
      "type": "VEC2"
    },
    {
      "bufferView": 7,
      "componentType": 5125,
      "count": 132,
      "name": "tyre1/INDICES",
      "type": "SCALAR"
    },
    {
      "bufferView": 8,
      "componentType": 5126,
      "count": 130,
      "max": [
        0.05479834973812103,
        0.12112657725811005,
        0.1211165115237236
      ],
      "min": [
        -0.05479855090379715,
        -0.12112706154584885,
        -0.12111631035804749
      ],
      "name": "tyre3/POSITION",
      "type": "VEC3"
    },
    {
      "bufferView": 8,
      "byteOffset": 12,
      "componentType": 5126,
      "count": 130,
      "name": "tyre3/NORMAL",
      "type": "VEC3"
    },
    {
      "bufferView": 8,
      "byteOffset": 24,
      "componentType": 5126,
      "count": 130,
      "name": "tyre3/TEXCOORD_0",
      "type": "VEC2"
    },
    {
      "bufferView": 9,
      "componentType": 5125,
      "count": 132,
      "name": "tyre3/INDICES",
      "type": "SCALAR"
    },
    {
      "bufferView": 10,
      "componentType": 5126,
      "count": 125,
      "max": [
        0.05479826405644417,
        0.1211162805557251,
        0.1211271658539772
      ],
      "min": [
        -0.05479833483695984,
        -0.12111660838127136,
        -0.12112662941217422
      ],
      "name": "tyre4/POSITION",
      "type": "VEC3"
    },
    {
      "bufferView": 10,
      "byteOffset": 12,
      "componentType": 5126,
      "count": 125,
      "name": "tyre4/NORMAL",
      "type": "VEC3"
    },
    {
      "bufferView": 10,
      "byteOffset": 24,
      "componentType": 5126,
      "count": 125,
      "name": "tyre4/TEXCOORD_0",
      "type": "VEC2"
    },
    {
      "bufferView": 11,
      "componentType": 5125,
      "count": 132,
      "name": "tyre4/INDICES",
      "type": "SCALAR"
    }
  ],
  "asset": {
    "copyright": "Copyright (c) 2018-2020 Chukong Technologies Inc.",
    "generator": "FBX-glTF-conv",
    "version": "2.0"
  },
  "bufferViews": [
    {
      "buffer": 0,
      "byteLength": 31808,
      "byteStride": 32,
      "name": "taxi04",
      "target": 34962
    },
    {
      "buffer": 0,
      "byteLength": 5736,
      "byteOffset": 31808
    },
    {
      "buffer": 0,
      "byteLength": 512,
      "byteOffset": 37544,
      "byteStride": 32,
      "name": "light1",
      "target": 34962
    },
    {
      "buffer": 0,
      "byteLength": 144,
      "byteOffset": 38056
    },
    {
      "buffer": 0,
      "byteLength": 4224,
      "byteOffset": 38200,
      "byteStride": 32,
      "name": "tyre2",
      "target": 34962
    },
    {
      "buffer": 0,
      "byteLength": 528,
      "byteOffset": 42424
    },
    {
      "buffer": 0,
      "byteLength": 4224,
      "byteOffset": 42952,
      "byteStride": 32,
      "name": "tyre1",
      "target": 34962
    },
    {
      "buffer": 0,
      "byteLength": 528,
      "byteOffset": 47176
    },
    {
      "buffer": 0,
      "byteLength": 4160,
      "byteOffset": 47704,
      "byteStride": 32,
      "name": "tyre3",
      "target": 34962
    },
    {
      "buffer": 0,
      "byteLength": 528,
      "byteOffset": 51864
    },
    {
      "buffer": 0,
      "byteLength": 4000,
      "byteOffset": 52392,
      "byteStride": 32,
      "name": "tyre4",
      "target": 34962
    },
    {
      "buffer": 0,
      "byteLength": 528,
      "byteOffset": 56392
    }
  ],
  "buffers": [
    {
      "byteLength": 56920,
      "uri": "out.bin"
    }
  ],
  "images": [
    {
      "extras": {
        "FBX-glTF-conv": {
          "fileName": "/Users/qinx/coding/cocos2dx/taxi/assets/model/cars/taxi/taxi04Red.jpg",
          "relativeFileName": "taxi04Red.jpg"
        }
      },
      "name": "贴图 #14",
      "uri": "taxi04Red.jpg"
    },
    {
      "extras": {
        "FBX-glTF-conv": {
          "fileName": "/Users/qinx/coding/cocos2dx/taxi/assets/model/cars/taxi/taxi04Light.png",
          "relativeFileName": "taxi04Light.png"
        }
      },
      "name": "贴图 #17",
      "uri": "taxi04Light.png"
    }
  ],
  "materials": [
    {
      "name": "Material #14",
      "pbrMetallicRoughness": {
        "baseColorTexture": {
          "index": 0
        },
        "metallicFactor": 0.4000000059604645,
        "roughnessFactor": 0.7071067690849304
      }
    },
    {
      "name": "Material #17",
      "pbrMetallicRoughness": {
        "baseColorTexture": {
          "index": 1
        },
        "metallicFactor": 0.4000000059604645,
        "roughnessFactor": 0.7071067690849304
      }
    }
  ],
  "meshes": [
    {
      "name": "taxi04",
      "primitives": [
        {
          "attributes": {
            "NORMAL": 1,
            "POSITION": 0,
            "TEXCOORD_0": 2
          },
          "indices": 3,
          "material": 0
        }
      ]
    },
    {
      "name": "light1",
      "primitives": [
        {
          "attributes": {
            "NORMAL": 5,
            "POSITION": 4,
            "TEXCOORD_0": 6
          },
          "indices": 7,
          "material": 1
        }
      ]
    },
    {
      "name": "tyre2",
      "primitives": [
        {
          "attributes": {
            "NORMAL": 9,
            "POSITION": 8,
            "TEXCOORD_0": 10
          },
          "indices": 11,
          "material": 0
        }
      ]
    },
    {
      "name": "tyre1",
      "primitives": [
        {
          "attributes": {
            "NORMAL": 13,
            "POSITION": 12,
            "TEXCOORD_0": 14
          },
          "indices": 15,
          "material": 0
        }
      ]
    },
    {
      "name": "tyre3",
      "primitives": [
        {
          "attributes": {
            "NORMAL": 17,
            "POSITION": 16,
            "TEXCOORD_0": 18
          },
          "indices": 19,
          "material": 0
        }
      ]
    },
    {
      "name": "tyre4",
      "primitives": [
        {
          "attributes": {
            "NORMAL": 21,
            "POSITION": 20,
            "TEXCOORD_0": 22
          },
          "indices": 23,
          "material": 0
        }
      ]
    }
  ],
  "nodes": [
    {
      "mesh": 0,
      "name": "taxi04",
      "rotation": [
        0.7071068286895752,
        1.6858739115832577e-07,
        -1.685874053691805e-07,
        0.7071067690849304
      ],
      "scale": [
        -0.3419249951839447,
        -0.3419249951839447,
        -0.3419249951839447
      ]
    },
    {
      "mesh": 1,
      "name": "light1",
      "rotation": [
        1.5454315160923215e-08,
        -0.7071065306663513,
        1.545430272642534e-08,
        0.7071070671081543
      ],
      "scale": [
        0.3419249951839447,
        0.3419249951839447,
        0.3419249951839447
      ],
      "translation": [
        0.0,
        0.10893221199512482,
        0.23168037831783295
      ]
    },
    {
      "mesh": 2,
      "name": "tyre2",
      "rotation": [
        -2.5632975424313628e-14,
        1.0,
        -8.146034247147327e-08,
        -3.1391647326017846e-07
      ],
      "scale": [
        0.3419249951839447,
        0.3419249951839447,
        0.3419249951839447
      ],
      "translation": [
        0.11048919707536697,
        0.04812130331993103,
        0.13535156846046448
      ]
    },
    {
      "mesh": 3,
      "name": "tyre1",
      "rotation": [
        -0.7071067690849304,
        3.1730519367556553e-07,
        -7.612506465193292e-07,
        0.7071067690849304
      ],
      "scale": [
        0.3419249951839447,
        0.3419249951839447,
        0.3419240117073059
      ],
      "translation": [
        -0.11028122156858444,
        0.04812128469347954,
        0.1348922699689865
      ]
    },
    {
      "mesh": 4,
      "name": "tyre3",
      "rotation": [
        -0.7071067094802856,
        2.9502797360692057e-07,
        2.9502794518521114e-07,
        0.7071068286895752
      ],
      "scale": [
        0.3419249951839447,
        0.3419249951839447,
        0.3419249951839447
      ],
      "translation": [
        -0.1057789996266365,
        0.04812128096818924,
        -0.14292940497398376
      ]
    },
    {
      "mesh": 5,
      "name": "tyre4",
      "rotation": [
        -2.5632975424313628e-14,
        1.0,
        -8.146034247147327e-08,
        -3.1391647326017846e-07
      ],
      "scale": [
        0.3419249951839447,
        0.3419249951839447,
        0.3419249951839447
      ],
      "translation": [
        0.10428300499916077,
        0.04812130331993103,
        -0.14249230921268463
      ]
    }
  ],
  "samplers": [
    {}
  ],
  "scenes": [
    {
      "nodes": [
        0,
        1,
        2,
        3,
        4,
        5
      ]
    }
  ],
  "textures": [
    {
      "name": "贴图 #14",
      "sampler": 0,
      "source": 0
    },
    {
      "name": "贴图 #17",
      "sampler": 0,
      "source": 1
    }
  ]
}