{
  "accessors": [
    {
      "bufferView": 0,
      "componentType": 5126,
      "count": 196,
      "max": [
        0.0,
        4.000028133392334,
        0.03540284186601639
      ],
      "min": [
        -4.0,
        -1.9378661875180114e-07,
        -3.7727832022937946e-06
      ],
      "name": "001/POSITION",
      "type": "VEC3"
    },
    {
      "bufferView": 0,
      "byteOffset": 12,
      "componentType": 5126,
      "count": 196,
      "name": "001/NORMAL",
      "type": "VEC3"
    },
    {
      "bufferView": 0,
      "byteOffset": 24,
      "componentType": 5126,
      "count": 196,
      "name": "001/TEXCOORD_0",
      "type": "VEC2"
    },
    {
      "bufferView": 1,
      "componentType": 5125,
      "count": 351,
      "name": "001/INDICES",
      "type": "SCALAR"
    }
  ],
  "asset": {
    "copyright": "Copyright (c) 2018-2020 Chukong Technologies Inc.",
    "generator": "FBX-glTF-conv",
    "version": "2.0"
  },
  "bufferViews": [
    {
      "buffer": 0,
      "byteLength": 6272,
      "byteStride": 32,
      "name": "001",
      "target": 34962
    },
    {
      "buffer": 0,
      "byteLength": 1404,
      "byteOffset": 6272
    }
  ],
  "buffers": [
    {
      "byteLength": 7676,
      "uri": "out.bin"
    }
  ],
  "images": [
    {
      "extras": {
        "FBX-glTF-conv": {
          "fileName": "/Users/qinx/coding/cocos2dx/Cocos2dx-taxi/temp/asset-db/assets/fbx.FBX-glTF-conv/27b67583-a786-453d-9fbe-1381f953f780/output/.fbm/A78A19FE/road05.fbm/road03.jpg",
          "relativeFileName": "../../../temp/asset-db/assets/fbx.FBX-glTF-conv/27b67583-a786-453d-9fbe-1381f953f780/output/.fbm/A78A19FE/road05.fbm/road03.jpg"
        }
      },
      "name": "贴图 #8",
      "uri": "road03.jpg"
    }
  ],
  "materials": [
    {
      "name": "Material #103",
      "pbrMetallicRoughness": {
        "baseColorTexture": {
          "index": 0
        },
        "metallicFactor": 0.4000000059604645,
        "roughnessFactor": 0.7071067690849304
      }
    }
  ],
  "meshes": [
    {
      "name": "001",
      "primitives": [
        {
          "attributes": {
            "NORMAL": 1,
            "POSITION": 0,
            "TEXCOORD_0": 2
          },
          "indices": 3,
          "material": 0
        }
      ]
    }
  ],
  "nodes": [
    {
      "mesh": 0,
      "name": "001",
      "rotation": [
        -0.7071067690849304,
        -0.0,
        0.0,
        0.7071067690849304
      ],
      "translation": [
        3.0,
        0.0,
        0.0
      ]
    }
  ],
  "samplers": [
    {}
  ],
  "scenes": [
    {
      "nodes": [
        0
      ]
    }
  ],
  "textures": [
    {
      "name": "贴图 #8",
      "sampler": 0,
      "source": 0
    }
  ]
}