{
  "accessors": [
    {
      "bufferView": 0,
      "componentType": 5126,
      "count": 174,
      "max": [
        3.9548957347869873,
        4.000028133392334,
        0.0354028046131134
      ],
      "min": [
        0.0,
        3.875732375036023e-07,
        3.0279159091151087e-07
      ],
      "name": "001_Material0/POSITION",
      "type": "VEC3"
    },
    {
      "bufferView": 0,
      "byteOffset": 12,
      "componentType": 5126,
      "count": 174,
      "name": "001_Material0/NORMAL",
      "type": "VEC3"
    },
    {
      "bufferView": 0,
      "byteOffset": 24,
      "componentType": 5126,
      "count": 174,
      "name": "001_Material0/TEXCOORD_0",
      "type": "VEC2"
    },
    {
      "bufferView": 1,
      "componentType": 5125,
      "count": 270,
      "name": "001_Material0/INDICES",
      "type": "SCALAR"
    },
    {
      "bufferView": 2,
      "componentType": 5126,
      "count": 66,
      "max": [
        4.0,
        4.0,
        0.03540284186601639
      ],
      "min": [
        1.9999998807907104,
        -1.9378661875180114e-07,
        -3.7727832022937946e-06
      ],
      "name": "001_Material0/POSITION",
      "type": "VEC3"
    },
    {
      "bufferView": 2,
      "byteOffset": 12,
      "componentType": 5126,
      "count": 66,
      "name": "001_Material0/NORMAL",
      "type": "VEC3"
    },
    {
      "bufferView": 2,
      "byteOffset": 24,
      "componentType": 5126,
      "count": 66,
      "name": "001_Material0/TEXCOORD_0",
      "type": "VEC2"
    },
    {
      "bufferView": 3,
      "componentType": 5125,
      "count": 81,
      "name": "001_Material0/INDICES",
      "type": "SCALAR"
    }
  ],
  "asset": {
    "copyright": "Copyright (c) 2018-2020 Chukong Technologies Inc.",
    "generator": "FBX-glTF-conv",
    "version": "2.0"
  },
  "bufferViews": [
    {
      "buffer": 0,
      "byteLength": 5568,
      "byteStride": 32,
      "name": "001_Material0",
      "target": 34962
    },
    {
      "buffer": 0,
      "byteLength": 1080,
      "byteOffset": 5568
    },
    {
      "buffer": 0,
      "byteLength": 2112,
      "byteOffset": 6648,
      "byteStride": 32,
      "name": "001_Material0",
      "target": 34962
    },
    {
      "buffer": 0,
      "byteLength": 324,
      "byteOffset": 8760
    }
  ],
  "buffers": [
    {
      "byteLength": 9084,
      "uri": "out.bin"
    }
  ],
  "images": [
    {
      "extras": {
        "FBX-glTF-conv": {
          "fileName": "/Users/qinx/coding/cocos2dx/Cocos2dx-taxi/assets/model/road/road03.jpg",
          "relativeFileName": "road03.jpg"
        }
      },
      "name": "贴图 #7",
      "uri": "road03.jpg"
    },
    {
      "extras": {
        "FBX-glTF-conv": {
          "fileName": "/Users/qinx/coding/cocos2dx/Cocos2dx-taxi/assets/model/road/road01.jpg",
          "relativeFileName": "road01.jpg"
        }
      },
      "name": "贴图 #4",
      "uri": "road01.jpg"
    }
  ],
  "materials": [
    {
      "name": "Material #90",
      "pbrMetallicRoughness": {
        "baseColorTexture": {
          "index": 0
        },
        "metallicFactor": 0.4000000059604645,
        "roughnessFactor": 0.7071067690849304
      }
    },
    {
      "name": "Material #87",
      "pbrMetallicRoughness": {
        "baseColorTexture": {
          "index": 1
        },
        "metallicFactor": 0.4000000059604645,
        "roughnessFactor": 0.7071067690849304
      }
    }
  ],
  "meshes": [
    {
      "name": "001_Material0",
      "primitives": [
        {
          "attributes": {
            "NORMAL": 1,
            "POSITION": 0,
            "TEXCOORD_0": 2
          },
          "indices": 3,
          "material": 0
        },
        {
          "attributes": {
            "NORMAL": 5,
            "POSITION": 4,
            "TEXCOORD_0": 6
          },
          "indices": 7,
          "material": 1
        }
      ]
    }
  ],
  "nodes": [
    {
      "mesh": 0,
      "name": "001",
      "rotation": [
        -0.7071067690849304,
        -0.0,
        0.0,
        0.7071067690849304
      ],
      "translation": [
        -3.0,
        0.0,
        0.0
      ]
    }
  ],
  "samplers": [
    {}
  ],
  "scenes": [
    {
      "nodes": [
        0
      ]
    }
  ],
  "textures": [
    {
      "name": "贴图 #7",
      "sampler": 0,
      "source": 0
    },
    {
      "name": "贴图 #4",
      "sampler": 0,
      "source": 1
    }
  ]
}