{
  "accessors": [
    {
      "bufferView": 0,
      "componentType": 5126,
      "count": 2334,
      "max": [
        0.12194953858852386,
        0.25229302048683167,
        0.18872958421707153
      ],
      "min": [
        -0.12222042679786682,
        -0.24568870663642883,
        0.03925342857837677
      ],
      "name": "passat/POSITION",
      "type": "VEC3"
    },
    {
      "bufferView": 0,
      "byteOffset": 12,
      "componentType": 5126,
      "count": 2334,
      "name": "passat/NORMAL",
      "type": "VEC3"
    },
    {
      "bufferView": 0,
      "byteOffset": 24,
      "componentType": 5126,
      "count": 2334,
      "name": "passat/TEXCOORD_0",
      "type": "VEC2"
    },
    {
      "bufferView": 1,
      "componentType": 5125,
      "count": 2466,
      "name": "passat/INDICES",
      "type": "SCALAR"
    },
    {
      "bufferView": 2,
      "componentType": 5126,
      "count": 18,
      "max": [
        0.00882700551301241,
        0.0006603276706300676,
        0.0019385755294933915
      ],
      "min": [
        -0.00882700551301241,
        -0.0006603288929909468,
        -0.0019385761115700006
      ],
      "name": "light1/POSITION",
      "type": "VEC3"
    },
    {
      "bufferView": 2,
      "byteOffset": 12,
      "componentType": 5126,
      "count": 18,
      "name": "light1/NORMAL",
      "type": "VEC3"
    },
    {
      "bufferView": 2,
      "byteOffset": 24,
      "componentType": 5126,
      "count": 18,
      "name": "light1/TEXCOORD_0",
      "type": "VEC2"
    },
    {
      "bufferView": 3,
      "componentType": 5125,
      "count": 48,
      "name": "light1/INDICES",
      "type": "SCALAR"
    },
    {
      "bufferView": 4,
      "componentType": 5126,
      "count": 58,
      "max": [
        0.0014563584700226784,
        0.0035875672474503517,
        0.0034976168535649776
      ],
      "min": [
        -0.0014563680160790682,
        -0.0035875700414180756,
        -0.0034976156894117594
      ],
      "name": "tyre2/POSITION",
      "type": "VEC3"
    },
    {
      "bufferView": 4,
      "byteOffset": 12,
      "componentType": 5126,
      "count": 58,
      "name": "tyre2/NORMAL",
      "type": "VEC3"
    },
    {
      "bufferView": 4,
      "byteOffset": 24,
      "componentType": 5126,
      "count": 58,
      "name": "tyre2/TEXCOORD_0",
      "type": "VEC2"
    },
    {
      "bufferView": 5,
      "componentType": 5125,
      "count": 156,
      "name": "tyre2/INDICES",
      "type": "SCALAR"
    },
    {
      "bufferView": 6,
      "componentType": 5126,
      "count": 58,
      "max": [
        0.001159688807092607,
        0.003587564919143915,
        0.003497618017718196
      ],
      "min": [
        -0.0011596876429393888,
        -0.0035875653848052025,
        -0.003497615223750472
      ],
      "name": "tyre4/POSITION",
      "type": "VEC3"
    },
    {
      "bufferView": 6,
      "byteOffset": 12,
      "componentType": 5126,
      "count": 58,
      "name": "tyre4/NORMAL",
      "type": "VEC3"
    },
    {
      "bufferView": 6,
      "byteOffset": 24,
      "componentType": 5126,
      "count": 58,
      "name": "tyre4/TEXCOORD_0",
      "type": "VEC2"
    },
    {
      "bufferView": 7,
      "componentType": 5125,
      "count": 156,
      "name": "tyre4/INDICES",
      "type": "SCALAR"
    },
    {
      "bufferView": 8,
      "componentType": 5126,
      "count": 58,
      "max": [
        0.0014563584700226784,
        0.0035875672474503517,
        0.0034976168535649776
      ],
      "min": [
        -0.0014563680160790682,
        -0.0035875700414180756,
        -0.0034976156894117594
      ],
      "name": "tyre1/POSITION",
      "type": "VEC3"
    },
    {
      "bufferView": 8,
      "byteOffset": 12,
      "componentType": 5126,
      "count": 58,
      "name": "tyre1/NORMAL",
      "type": "VEC3"
    },
    {
      "bufferView": 8,
      "byteOffset": 24,
      "componentType": 5126,
      "count": 58,
      "name": "tyre1/TEXCOORD_0",
      "type": "VEC2"
    },
    {
      "bufferView": 9,
      "componentType": 5125,
      "count": 156,
      "name": "tyre1/INDICES",
      "type": "SCALAR"
    },
    {
      "bufferView": 10,
      "componentType": 5126,
      "count": 58,
      "max": [
        0.001159688807092607,
        0.003587564919143915,
        0.003497618017718196
      ],
      "min": [
        -0.0011596876429393888,
        -0.0035875653848052025,
        -0.003497615223750472
      ],
      "name": "tyre3/POSITION",
      "type": "VEC3"
    },
    {
      "bufferView": 10,
      "byteOffset": 12,
      "componentType": 5126,
      "count": 58,
      "name": "tyre3/NORMAL",
      "type": "VEC3"
    },
    {
      "bufferView": 10,
      "byteOffset": 24,
      "componentType": 5126,
      "count": 58,
      "name": "tyre3/TEXCOORD_0",
      "type": "VEC2"
    },
    {
      "bufferView": 11,
      "componentType": 5125,
      "count": 156,
      "name": "tyre3/INDICES",
      "type": "SCALAR"
    }
  ],
  "asset": {
    "copyright": "Copyright (c) 2018-2020 Chukong Technologies Inc.",
    "generator": "FBX-glTF-conv",
    "version": "2.0"
  },
  "bufferViews": [
    {
      "buffer": 0,
      "byteLength": 74688,
      "byteStride": 32,
      "name": "passat",
      "target": 34962
    },
    {
      "buffer": 0,
      "byteLength": 9864,
      "byteOffset": 74688
    },
    {
      "buffer": 0,
      "byteLength": 576,
      "byteOffset": 84552,
      "byteStride": 32,
      "name": "light1",
      "target": 34962
    },
    {
      "buffer": 0,
      "byteLength": 192,
      "byteOffset": 85128
    },
    {
      "buffer": 0,
      "byteLength": 1856,
      "byteOffset": 85320,
      "byteStride": 32,
      "name": "tyre2",
      "target": 34962
    },
    {
      "buffer": 0,
      "byteLength": 624,
      "byteOffset": 87176
    },
    {
      "buffer": 0,
      "byteLength": 1856,
      "byteOffset": 87800,
      "byteStride": 32,
      "name": "tyre4",
      "target": 34962
    },
    {
      "buffer": 0,
      "byteLength": 624,
      "byteOffset": 89656
    },
    {
      "buffer": 0,
      "byteLength": 1856,
      "byteOffset": 90280,
      "byteStride": 32,
      "name": "tyre1",
      "target": 34962
    },
    {
      "buffer": 0,
      "byteLength": 624,
      "byteOffset": 92136
    },
    {
      "buffer": 0,
      "byteLength": 1856,
      "byteOffset": 92760,
      "byteStride": 32,
      "name": "tyre3",
      "target": 34962
    },
    {
      "buffer": 0,
      "byteLength": 624,
      "byteOffset": 94616
    }
  ],
  "buffers": [
    {
      "byteLength": 95240,
      "uri": "out.bin"
    }
  ],
  "images": [
    {
      "extras": {
        "FBX-glTF-conv": {
          "fileName": "/Users/qinx/coding/cocos2dx/taxi/assets/model/cars/taxi/taxi07Black.jpg",
          "relativeFileName": "taxi07Black.jpg"
        }
      },
      "name": "贴图 #15",
      "uri": "taxi07Black.jpg"
    },
    {
      "extras": {
        "FBX-glTF-conv": {
          "fileName": "/Users/qinx/coding/cocos2dx/taxi/assets/model/cars/taxi/taxi07Light.png",
          "relativeFileName": "taxi07Light.png"
        }
      },
      "name": "贴图 #14",
      "uri": "taxi07Light.png"
    }
  ],
  "materials": [
    {
      "name": "Material #27",
      "pbrMetallicRoughness": {
        "baseColorTexture": {
          "index": 0
        },
        "metallicFactor": 0.4000000059604645,
        "roughnessFactor": 0.7071067690849304
      }
    },
    {
      "name": "Material #26",
      "pbrMetallicRoughness": {
        "baseColorTexture": {
          "index": 1
        },
        "metallicFactor": 0.4000000059604645,
        "roughnessFactor": 0.7071067690849304
      }
    }
  ],
  "meshes": [
    {
      "name": "passat",
      "primitives": [
        {
          "attributes": {
            "NORMAL": 1,
            "POSITION": 0,
            "TEXCOORD_0": 2
          },
          "indices": 3,
          "material": 0
        }
      ]
    },
    {
      "name": "light1",
      "primitives": [
        {
          "attributes": {
            "NORMAL": 5,
            "POSITION": 4,
            "TEXCOORD_0": 6
          },
          "indices": 7,
          "material": 1
        }
      ]
    },
    {
      "name": "tyre2",
      "primitives": [
        {
          "attributes": {
            "NORMAL": 9,
            "POSITION": 8,
            "TEXCOORD_0": 10
          },
          "indices": 11,
          "material": 0
        }
      ]
    },
    {
      "name": "tyre4",
      "primitives": [
        {
          "attributes": {
            "NORMAL": 13,
            "POSITION": 12,
            "TEXCOORD_0": 14
          },
          "indices": 15,
          "material": 0
        }
      ]
    },
    {
      "name": "tyre1",
      "primitives": [
        {
          "attributes": {
            "NORMAL": 17,
            "POSITION": 16,
            "TEXCOORD_0": 18
          },
          "indices": 19,
          "material": 0
        }
      ]
    },
    {
      "name": "tyre3",
      "primitives": [
        {
          "attributes": {
            "NORMAL": 21,
            "POSITION": 20,
            "TEXCOORD_0": 22
          },
          "indices": 23,
          "material": 0
        }
      ]
    }
  ],
  "nodes": [
    {
      "mesh": 0,
      "name": "passat",
      "rotation": [
        -0.7071068286895752,
        0.0,
        0.0,
        0.7071067094802856
      ],
      "translation": [
        -9.322318874183111e-06,
        -6.553291007048018e-34,
        2.584939356450313e-28
      ]
    },
    {
      "mesh": 1,
      "name": "light1",
      "rotation": [
        -1.376786826767784e-07,
        0.7071072459220886,
        -0.7071062922477722,
        -1.376788674178897e-07
      ],
      "scale": [
        -11.771048545837402,
        -11.771048545837402,
        -11.771048545837402
      ],
      "translation": [
        -0.00014472224575001746,
        0.09513019770383835,
        0.22624793648719788
      ]
    },
    {
      "mesh": 2,
      "name": "tyre2",
      "rotation": [
        0.7071062922477722,
        1.0677023709604327e-07,
        -1.0677009498749612e-07,
        0.7071072459220886
      ],
      "scale": [
        -11.771048545837402,
        -11.771048545837402,
        -11.771048545837402
      ],
      "translation": [
        0.10008440911769867,
        0.04395464062690735,
        0.12518757581710815
      ]
    },
    {
      "mesh": 3,
      "name": "tyre4",
      "rotation": [
        0.7071062922477722,
        1.0677023709604327e-07,
        -1.0677009498749612e-07,
        0.7071072459220886
      ],
      "scale": [
        -11.771048545837402,
        -11.771048545837402,
        -11.771048545837402
      ],
      "translation": [
        0.10008439421653748,
        0.04395478218793869,
        -0.14359429478645325
      ]
    },
    {
      "mesh": 4,
      "name": "tyre1",
      "rotation": [
        -0.7071072459220886,
        1.0677009498749612e-07,
        1.0677023709604327e-07,
        0.7071062922477722
      ],
      "scale": [
        11.771048545837402,
        11.771048545837402,
        11.771048545837402
      ],
      "translation": [
        -0.10042119771242142,
        0.04395464062690735,
        0.12518757581710815
      ]
    },
    {
      "mesh": 5,
      "name": "tyre3",
      "rotation": [
        -0.7071072459220886,
        1.0677009498749612e-07,
        1.0677023709604327e-07,
        0.7071062922477722
      ],
      "scale": [
        11.771048545837402,
        11.771048545837402,
        11.771048545837402
      ],
      "translation": [
        -0.10042122006416321,
        0.04395478218793869,
        -0.14359429478645325
      ]
    }
  ],
  "samplers": [
    {}
  ],
  "scenes": [
    {
      "nodes": [
        0,
        1,
        2,
        3,
        4,
        5
      ]
    }
  ],
  "textures": [
    {
      "name": "贴图 #15",
      "sampler": 0,
      "source": 0
    },
    {
      "name": "贴图 #14",
      "sampler": 0,
      "source": 1
    }
  ]
}