{
  "accessors": [
    {
      "bufferView": 0,
      "componentType": 5126,
      "count": 2893,
      "max": [
        0.012211664579808712,
        0.023402420803904533,
        0.025981277227401733
      ],
      "min": [
        -0.012211664579808712,
        -0.023025594651699066,
        -2.3749518732074648e-05
      ],
      "name": "car_005_0/POSITION",
      "type": "VEC3"
    },
    {
      "bufferView": 0,
      "byteOffset": 12,
      "componentType": 5126,
      "count": 2893,
      "name": "car_005_0/NORMAL",
      "type": "VEC3"
    },
    {
      "bufferView": 0,
      "byteOffset": 24,
      "componentType": 5126,
      "count": 2893,
      "name": "car_005_0/TEXCOORD_0",
      "type": "VEC2"
    },
    {
      "bufferView": 1,
      "componentType": 5125,
      "count": 7206,
      "name": "car_005_0/INDICES",
      "type": "SCALAR"
    }
  ],
  "asset": {
    "copyright": "Copyright (c) 2018-2020 Chukong Technologies Inc.",
    "generator": "FBX-glTF-conv",
    "version": "2.0"
  },
  "bufferViews": [
    {
      "buffer": 0,
      "byteLength": 92576,
      "byteStride": 32,
      "name": "car_005_0",
      "target": 34962
    },
    {
      "buffer": 0,
      "byteLength": 28824,
      "byteOffset": 92576
    }
  ],
  "buffers": [
    {
      "byteLength": 121400,
      "uri": "out.bin"
    }
  ],
  "images": [
    {
      "extras": {
        "FBX-glTF-conv": {
          "fileName": "/Users/qinx/coding/cocos2dx/taxi/assets/model/cars/truck/truck02Blue.jpg",
          "relativeFileName": "truck02Blue.jpg"
        }
      },
      "name": "truck02Blue",
      "uri": "truck02Blue.jpg"
    }
  ],
  "materials": [
    {
      "name": "truck02Blue",
      "pbrMetallicRoughness": {
        "baseColorTexture": {
          "index": 0
        },
        "metallicFactor": 0.4000000059604645,
        "roughnessFactor": 0.7071067690849304
      }
    }
  ],
  "meshes": [
    {
      "name": "car_005_0",
      "primitives": [
        {
          "attributes": {
            "NORMAL": 1,
            "POSITION": 0,
            "TEXCOORD_0": 2
          },
          "indices": 3,
          "material": 0
        }
      ]
    }
  ],
  "nodes": [
    {
      "mesh": 0,
      "name": "car_005_0",
      "rotation": [
        3.0908619663705394e-08,
        0.7071067690849304,
        0.7071067690849304,
        -3.0908619663705394e-08
      ],
      "scale": [
        29.148046493530273,
        29.148046493530273,
        29.148046493530273
      ]
    }
  ],
  "samplers": [
    {}
  ],
  "scenes": [
    {
      "nodes": [
        0
      ]
    }
  ],
  "textures": [
    {
      "name": "truck02Blue",
      "sampler": 0,
      "source": 0
    }
  ]
}