{
  "accessors": [
    {
      "bufferView": 0,
      "componentType": 5126,
      "count": 304,
      "max": [
        1.744065912134829e-06,
        6.0,
        0.03500072658061981
      ],
      "min": [
        -4.0,
        -1.7440795545553556e-06,
        3.3307074431832007e-07
      ],
      "name": "002/POSITION",
      "type": "VEC3"
    },
    {
      "bufferView": 0,
      "byteOffset": 12,
      "componentType": 5126,
      "count": 304,
      "name": "002/NORMAL",
      "type": "VEC3"
    },
    {
      "bufferView": 0,
      "byteOffset": 24,
      "componentType": 5126,
      "count": 304,
      "name": "002/TEXCOORD_0",
      "type": "VEC2"
    },
    {
      "bufferView": 1,
      "componentType": 5125,
      "count": 558,
      "name": "002/INDICES",
      "type": "SCALAR"
    }
  ],
  "asset": {
    "copyright": "Copyright (c) 2018-2020 Chukong Technologies Inc.",
    "generator": "FBX-glTF-conv",
    "version": "2.0"
  },
  "bufferViews": [
    {
      "buffer": 0,
      "byteLength": 9728,
      "byteStride": 32,
      "name": "002",
      "target": 34962
    },
    {
      "buffer": 0,
      "byteLength": 2232,
      "byteOffset": 9728
    }
  ],
  "buffers": [
    {
      "byteLength": 11960,
      "uri": "out.bin"
    }
  ],
  "images": [
    {
      "extras": {
        "FBX-glTF-conv": {
          "fileName": "/Users/qinx/coding/cocos2dx/Cocos2dx-taxi/assets/model/road/road03.jpg",
          "relativeFileName": "road03.jpg"
        }
      },
      "name": "贴图 #7",
      "uri": "road03.jpg"
    }
  ],
  "materials": [
    {
      "name": "Material #90",
      "pbrMetallicRoughness": {
        "baseColorTexture": {
          "index": 0
        },
        "metallicFactor": 0.4000000059604645,
        "roughnessFactor": 0.7071067690849304
      }
    }
  ],
  "meshes": [
    {
      "name": "002",
      "primitives": [
        {
          "attributes": {
            "NORMAL": 1,
            "POSITION": 0,
            "TEXCOORD_0": 2
          },
          "indices": 3,
          "material": 0
        }
      ]
    }
  ],
  "nodes": [
    {
      "mesh": 0,
      "name": "002",
      "rotation": [
        -0.5000000596046448,
        -0.4999999701976776,
        -0.4999999701976776,
        0.5000000596046448
      ],
      "translation": [
        -3.000000238418579,
        -2.773928713395435e-07,
        -1.3668417092604912e-11
      ]
    }
  ],
  "samplers": [
    {}
  ],
  "scenes": [
    {
      "nodes": [
        0
      ]
    }
  ],
  "textures": [
    {
      "name": "贴图 #7",
      "sampler": 0,
      "source": 0
    }
  ]
}