{
  "accessors": [
    {
      "bufferView": 0,
      "componentType": 5126,
      "count": 82,
      "max": [
        0.0010341134620830417,
        0.001226560678333044,
        0.0014866115525364876
      ],
      "min": [
        -0.0010341134620830417,
        -0.001226560678333044,
        -7.462219946319237e-05
      ],
      "name": "CJ_PoLinKuang_01/POSITION",
      "type": "VEC3"
    },
    {
      "bufferView": 0,
      "byteOffset": 12,
      "componentType": 5126,
      "count": 82,
      "name": "CJ_PoLinKuang_01/NORMAL",
      "type": "VEC3"
    },
    {
      "bufferView": 0,
      "byteOffset": 24,
      "componentType": 5126,
      "count": 82,
      "name": "CJ_PoLinKuang_01/TEXCOORD_0",
      "type": "VEC2"
    },
    {
      "bufferView": 0,
      "byteOffset": 32,
      "componentType": 5126,
      "count": 82,
      "name": "CJ_PoLinKuang_01/TEXCOORD_1",
      "type": "VEC2"
    },
    {
      "bufferView": 0,
      "byteOffset": 40,
      "componentType": 5126,
      "count": 82,
      "name": "CJ_PoLinKuang_01/COLOR_0",
      "type": "VEC4"
    },
    {
      "bufferView": 1,
      "componentType": 5125,
      "count": 111,
      "name": "CJ_PoLinKuang_01/INDICES",
      "type": "SCALAR"
    }
  ],
  "asset": {
    "copyright": "Copyright (c) 2018-2020 Chukong Technologies Inc.",
    "generator": "FBX-glTF-conv",
    "version": "2.0"
  },
  "bufferViews": [
    {
      "buffer": 0,
      "byteLength": 4592,
      "byteStride": 56,
      "name": "CJ_PoLinKuang_01",
      "target": 34962
    },
    {
      "buffer": 0,
      "byteLength": 444,
      "byteOffset": 4592
    }
  ],
  "buffers": [
    {
      "byteLength": 5036,
      "uri": "out.bin"
    }
  ],
  "images": [
    {
      "extras": {
        "FBX-glTF-conv": {
          "fileName": "/Users/qinx/coding/cocos2dx/taxi/assets/model/tree/stone02.png",
          "relativeFileName": "stone02.png"
        }
      },
      "name": "stone02",
      "uri": "stone02.png"
    }
  ],
  "materials": [
    {
      "name": "stone02",
      "pbrMetallicRoughness": {
        "baseColorTexture": {
          "index": 0
        },
        "metallicFactor": 0.4000000059604645,
        "roughnessFactor": 0.7071067690849304
      }
    }
  ],
  "meshes": [
    {
      "name": "CJ_PoLinKuang_01",
      "primitives": [
        {
          "attributes": {
            "COLOR_0": 4,
            "NORMAL": 1,
            "POSITION": 0,
            "TEXCOORD_0": 2,
            "TEXCOORD_1": 3
          },
          "indices": 5,
          "material": 0
        }
      ]
    }
  ],
  "nodes": [
    {
      "mesh": 0,
      "name": "CJ_PoLinKuang_01",
      "rotation": [
        0.4925294518470764,
        0.5073605179786682,
        0.5073605179786682,
        -0.4925294518470764
      ],
      "scale": [
        52.41239547729492,
        52.41239547729492,
        52.41239547729492
      ],
      "translation": [
        4.1954491804898567e-26,
        2.574185278964689e-42,
        3.4936642467897627e-10
      ]
    }
  ],
  "samplers": [
    {}
  ],
  "scenes": [
    {
      "nodes": [
        0
      ]
    }
  ],
  "textures": [
    {
      "name": "stone02",
      "sampler": 0,
      "source": 0
    }
  ]
}