{
  "accessors": [
    {
      "bufferView": 0,
      "componentType": 5126,
      "count": 2664,
      "max": [
        0.0010023202048614621,
        0.0016985179390758276,
        0.0016795176779851317
      ],
      "min": [
        -0.0010055646998807788,
        -0.0016985179390758276,
        0.00024288803979288787
      ],
      "name": "CityCar_01_005-0/POSITION",
      "type": "VEC3"
    },
    {
      "bufferView": 0,
      "byteOffset": 12,
      "componentType": 5126,
      "count": 2664,
      "name": "CityCar_01_005-0/NORMAL",
      "type": "VEC3"
    },
    {
      "bufferView": 0,
      "byteOffset": 24,
      "componentType": 5126,
      "count": 2664,
      "name": "CityCar_01_005-0/TEXCOORD_0",
      "type": "VEC2"
    },
    {
      "bufferView": 0,
      "byteOffset": 32,
      "componentType": 5126,
      "count": 2664,
      "name": "CityCar_01_005-0/TEXCOORD_1",
      "type": "VEC2"
    },
    {
      "bufferView": 1,
      "componentType": 5125,
      "count": 7482,
      "name": "CityCar_01_005-0/INDICES",
      "type": "SCALAR"
    },
    {
      "bufferView": 2,
      "componentType": 5126,
      "count": 16,
      "max": [
        0.000879421946592629,
        4.606023503583856e-05,
        0.00021618678874801844
      ],
      "min": [
        -0.000879421946592629,
        -4.605978756444529e-05,
        -0.00021618686150759459
      ],
      "name": "light1/POSITION",
      "type": "VEC3"
    },
    {
      "bufferView": 2,
      "byteOffset": 12,
      "componentType": 5126,
      "count": 16,
      "name": "light1/NORMAL",
      "type": "VEC3"
    },
    {
      "bufferView": 2,
      "byteOffset": 24,
      "componentType": 5126,
      "count": 16,
      "name": "light1/TEXCOORD_0",
      "type": "VEC2"
    },
    {
      "bufferView": 2,
      "byteOffset": 32,
      "componentType": 5126,
      "count": 16,
      "name": "light1/TEXCOORD_1",
      "type": "VEC2"
    },
    {
      "bufferView": 3,
      "componentType": 5125,
      "count": 42,
      "name": "light1/INDICES",
      "type": "SCALAR"
    },
    {
      "bufferView": 4,
      "componentType": 5126,
      "count": 208,
      "max": [
        0.00010758965072454885,
        0.0002693658752832562,
        0.00026936575886793435
      ],
      "min": [
        -0.0001075894761015661,
        -0.000269366311840713,
        -0.0002693658752832562
      ],
      "name": "tyre2-4/POSITION",
      "type": "VEC3"
    },
    {
      "bufferView": 4,
      "byteOffset": 12,
      "componentType": 5126,
      "count": 208,
      "name": "tyre2-4/NORMAL",
      "type": "VEC3"
    },
    {
      "bufferView": 4,
      "byteOffset": 24,
      "componentType": 5126,
      "count": 208,
      "name": "tyre2-4/TEXCOORD_0",
      "type": "VEC2"
    },
    {
      "bufferView": 4,
      "byteOffset": 32,
      "componentType": 5126,
      "count": 208,
      "name": "tyre2-4/TEXCOORD_1",
      "type": "VEC2"
    },
    {
      "bufferView": 5,
      "componentType": 5125,
      "count": 600,
      "name": "tyre2-4/INDICES",
      "type": "SCALAR"
    },
    {
      "bufferView": 6,
      "componentType": 5126,
      "count": 208,
      "max": [
        0.00010758906864793971,
        0.0002693660499062389,
        0.00026936590438708663
      ],
      "min": [
        -0.00010758985445136204,
        -0.0002693661372177303,
        -0.000269365671556443
      ],
      "name": "tyre3-5/POSITION",
      "type": "VEC3"
    },
    {
      "bufferView": 6,
      "byteOffset": 12,
      "componentType": 5126,
      "count": 208,
      "name": "tyre3-5/NORMAL",
      "type": "VEC3"
    },
    {
      "bufferView": 6,
      "byteOffset": 24,
      "componentType": 5126,
      "count": 208,
      "name": "tyre3-5/TEXCOORD_0",
      "type": "VEC2"
    },
    {
      "bufferView": 6,
      "byteOffset": 32,
      "componentType": 5126,
      "count": 208,
      "name": "tyre3-5/TEXCOORD_1",
      "type": "VEC2"
    },
    {
      "bufferView": 7,
      "componentType": 5125,
      "count": 600,
      "name": "tyre3-5/INDICES",
      "type": "SCALAR"
    },
    {
      "bufferView": 8,
      "componentType": 5126,
      "count": 208,
      "max": [
        0.00010758930147858337,
        0.00026936602080240846,
        0.0002693657879717648
      ],
      "min": [
        -0.00010758938879007474,
        -0.0002693662536330521,
        -0.00026936575886793435
      ],
      "name": "tyre1-1/POSITION",
      "type": "VEC3"
    },
    {
      "bufferView": 8,
      "byteOffset": 12,
      "componentType": 5126,
      "count": 208,
      "name": "tyre1-1/NORMAL",
      "type": "VEC3"
    },
    {
      "bufferView": 8,
      "byteOffset": 24,
      "componentType": 5126,
      "count": 208,
      "name": "tyre1-1/TEXCOORD_0",
      "type": "VEC2"
    },
    {
      "bufferView": 8,
      "byteOffset": 32,
      "componentType": 5126,
      "count": 208,
      "name": "tyre1-1/TEXCOORD_1",
      "type": "VEC2"
    },
    {
      "bufferView": 9,
      "componentType": 5125,
      "count": 600,
      "name": "tyre1-1/INDICES",
      "type": "SCALAR"
    },
    {
      "bufferView": 10,
      "componentType": 5126,
      "count": 208,
      "max": [
        0.00010758930147858337,
        0.00026936602080240846,
        0.0002693657879717648
      ],
      "min": [
        -0.00010758938879007474,
        -0.0002693662536330521,
        -0.00026936575886793435
      ],
      "name": "tyre3-2/POSITION",
      "type": "VEC3"
    },
    {
      "bufferView": 10,
      "byteOffset": 12,
      "componentType": 5126,
      "count": 208,
      "name": "tyre3-2/NORMAL",
      "type": "VEC3"
    },
    {
      "bufferView": 10,
      "byteOffset": 24,
      "componentType": 5126,
      "count": 208,
      "name": "tyre3-2/TEXCOORD_0",
      "type": "VEC2"
    },
    {
      "bufferView": 10,
      "byteOffset": 32,
      "componentType": 5126,
      "count": 208,
      "name": "tyre3-2/TEXCOORD_1",
      "type": "VEC2"
    },
    {
      "bufferView": 11,
      "componentType": 5125,
      "count": 600,
      "name": "tyre3-2/INDICES",
      "type": "SCALAR"
    },
    {
      "bufferView": 12,
      "componentType": 5126,
      "count": 46,
      "max": [
        0.0009003400919027627,
        -0.001491854665800929,
        0.0008706246735528111
      ],
      "min": [
        -0.0009003400919027627,
        -0.001630810322239995,
        0.0004382500774227083
      ],
      "name": "light1-3/POSITION",
      "type": "VEC3"
    },
    {
      "bufferView": 12,
      "byteOffset": 12,
      "componentType": 5126,
      "count": 46,
      "name": "light1-3/NORMAL",
      "type": "VEC3"
    },
    {
      "bufferView": 12,
      "byteOffset": 24,
      "componentType": 5126,
      "count": 46,
      "name": "light1-3/TEXCOORD_0",
      "type": "VEC2"
    },
    {
      "bufferView": 12,
      "byteOffset": 32,
      "componentType": 5126,
      "count": 46,
      "name": "light1-3/TEXCOORD_1",
      "type": "VEC2"
    },
    {
      "bufferView": 13,
      "componentType": 5125,
      "count": 66,
      "name": "light1-3/INDICES",
      "type": "SCALAR"
    }
  ],
  "asset": {
    "copyright": "Copyright (c) 2018-2020 Chukong Technologies Inc.",
    "generator": "FBX-glTF-conv",
    "version": "2.0"
  },
  "bufferViews": [
    {
      "buffer": 0,
      "byteLength": 106560,
      "byteStride": 40,
      "name": "CityCar_01_005-0",
      "target": 34962
    },
    {
      "buffer": 0,
      "byteLength": 29928,
      "byteOffset": 106560
    },
    {
      "buffer": 0,
      "byteLength": 640,
      "byteOffset": 136488,
      "byteStride": 40,
      "name": "light1",
      "target": 34962
    },
    {
      "buffer": 0,
      "byteLength": 168,
      "byteOffset": 137128
    },
    {
      "buffer": 0,
      "byteLength": 8320,
      "byteOffset": 137296,
      "byteStride": 40,
      "name": "tyre2-4",
      "target": 34962
    },
    {
      "buffer": 0,
      "byteLength": 2400,
      "byteOffset": 145616
    },
    {
      "buffer": 0,
      "byteLength": 8320,
      "byteOffset": 148016,
      "byteStride": 40,
      "name": "tyre3-5",
      "target": 34962
    },
    {
      "buffer": 0,
      "byteLength": 2400,
      "byteOffset": 156336
    },
    {
      "buffer": 0,
      "byteLength": 8320,
      "byteOffset": 158736,
      "byteStride": 40,
      "name": "tyre1-1",
      "target": 34962
    },
    {
      "buffer": 0,
      "byteLength": 2400,
      "byteOffset": 167056
    },
    {
      "buffer": 0,
      "byteLength": 8320,
      "byteOffset": 169456,
      "byteStride": 40,
      "name": "tyre3-2",
      "target": 34962
    },
    {
      "buffer": 0,
      "byteLength": 2400,
      "byteOffset": 177776
    },
    {
      "buffer": 0,
      "byteLength": 1840,
      "byteOffset": 180176,
      "byteStride": 40,
      "name": "light1-3",
      "target": 34962
    },
    {
      "buffer": 0,
      "byteLength": 264,
      "byteOffset": 182016
    }
  ],
  "buffers": [
    {
      "byteLength": 182280,
      "uri": "out.bin"
    }
  ],
  "images": [
    {
      "extras": {
        "FBX-glTF-conv": {
          "fileName": "/Users/qinx/coding/cocos2dx/taxi/assets/model/cars/taxi/taxi05Green.jpg",
          "relativeFileName": "taxi05Green.jpg"
        }
      },
      "name": "贴图 #19",
      "uri": "taxi05Green.jpg"
    },
    {
      "extras": {
        "FBX-glTF-conv": {
          "fileName": "F:\\游戏项目\\2019雅基项目\\3D汽车\\model\\cars\\taxi\\taxi05Green.png",
          "relativeFileName": "..\\游戏项目\\2019雅基项目\\3D汽车\\model\\cars\\taxi\\taxi05Green.png"
        }
      },
      "name": "taxi05Green",
      "uri": "data:image/png;base64,"
    },
    {
      "extras": {
        "FBX-glTF-conv": {
          "fileName": "/Users/qinx/coding/cocos2dx/taxi/assets/model/cars/taxi/taxi05Light.png",
          "relativeFileName": "taxi05Light.png"
        }
      },
      "name": "贴图 #21",
      "uri": "taxi05Light.png"
    }
  ],
  "materials": [
    {
      "name": "Material #20",
      "pbrMetallicRoughness": {
        "baseColorTexture": {
          "index": 0
        },
        "metallicFactor": 0.4000000059604645,
        "roughnessFactor": 0.7071067690849304
      }
    },
    {
      "name": "taxi05Green",
      "pbrMetallicRoughness": {
        "baseColorTexture": {
          "index": 1
        },
        "metallicFactor": 0.4000000059604645,
        "roughnessFactor": 0.7071067690849304
      }
    },
    {
      "name": "Material #22",
      "pbrMetallicRoughness": {
        "baseColorTexture": {
          "index": 2
        },
        "metallicFactor": 0.4000000059604645,
        "roughnessFactor": 0.7071067690849304
      }
    }
  ],
  "meshes": [
    {
      "name": "CityCar_01_005-0",
      "primitives": [
        {
          "attributes": {
            "NORMAL": 1,
            "POSITION": 0,
            "TEXCOORD_0": 2,
            "TEXCOORD_1": 3
          },
          "indices": 4,
          "material": 0
        }
      ]
    },
    {
      "name": "light1",
      "primitives": [
        {
          "attributes": {
            "NORMAL": 6,
            "POSITION": 5,
            "TEXCOORD_0": 7,
            "TEXCOORD_1": 8
          },
          "indices": 9,
          "material": 1
        }
      ]
    },
    {
      "name": "tyre2-4",
      "primitives": [
        {
          "attributes": {
            "NORMAL": 11,
            "POSITION": 10,
            "TEXCOORD_0": 12,
            "TEXCOORD_1": 13
          },
          "indices": 14,
          "material": 0
        }
      ]
    },
    {
      "name": "tyre3-5",
      "primitives": [
        {
          "attributes": {
            "NORMAL": 16,
            "POSITION": 15,
            "TEXCOORD_0": 17,
            "TEXCOORD_1": 18
          },
          "indices": 19,
          "material": 0
        }
      ]
    },
    {
      "name": "tyre1-1",
      "primitives": [
        {
          "attributes": {
            "NORMAL": 21,
            "POSITION": 20,
            "TEXCOORD_0": 22,
            "TEXCOORD_1": 23
          },
          "indices": 24,
          "material": 0
        }
      ]
    },
    {
      "name": "tyre3-2",
      "primitives": [
        {
          "attributes": {
            "NORMAL": 26,
            "POSITION": 25,
            "TEXCOORD_0": 27,
            "TEXCOORD_1": 28
          },
          "indices": 29,
          "material": 0
        }
      ]
    },
    {
      "name": "light1-3",
      "primitives": [
        {
          "attributes": {
            "NORMAL": 31,
            "POSITION": 30,
            "TEXCOORD_0": 32,
            "TEXCOORD_1": 33
          },
          "indices": 34,
          "material": 2
        }
      ]
    }
  ],
  "nodes": [
    {
      "mesh": 0,
      "name": "CityCar_01_005-0",
      "rotation": [
        0.7071068286895752,
        -9.334137907317675e-15,
        -2.1354030366182997e-07,
        0.7071067690849304
      ],
      "scale": [
        -123.44303131103516,
        -123.44303131103516,
        -123.44303131103516
      ]
    },
    {
      "mesh": 1,
      "name": "light1",
      "rotation": [
        -2.444488984565396e-07,
        0.7071069478988647,
        -0.7071066498756409,
        -3.090869071797897e-08
      ],
      "scale": [
        -123.44303131103516,
        -123.44303131103516,
        -123.44303131103516
      ],
      "translation": [
        4.626669536378358e-08,
        0.08078574389219284,
        0.19503770768642426
      ]
    },
    {
      "mesh": 2,
      "name": "tyre2-4",
      "rotation": [
        0.707105815410614,
        1.0676998840608576e-07,
        1.2363463497422345e-07,
        0.7071077823638916
      ],
      "scale": [
        -123.44303131103516,
        -123.44303131103516,
        -123.44303131103516
      ],
      "translation": [
        0.10587038844823837,
        0.037275638431310654,
        0.13275766372680664
      ]
    },
    {
      "mesh": 3,
      "name": "tyre3-5",
      "rotation": [
        0.7071068286895752,
        8.429369557916289e-08,
        -2.2476461580822615e-08,
        0.7071067690849304
      ],
      "scale": [
        -123.44303131103516,
        -123.44303131103516,
        -123.44303131103516
      ],
      "translation": [
        0.10587037354707718,
        0.03727561607956886,
        -0.12152279913425446
      ]
    },
    {
      "mesh": 4,
      "name": "tyre1-1",
      "rotation": [
        0.7071068286895752,
        8.429369557916289e-08,
        -2.2476461580822615e-08,
        0.7071067690849304
      ],
      "scale": [
        -123.44303131103516,
        -123.44303131103516,
        -123.44303131103516
      ],
      "translation": [
        -0.10602611303329468,
        0.0372442863881588,
        0.13278315961360931
      ]
    },
    {
      "mesh": 5,
      "name": "tyre3-2",
      "rotation": [
        0.7071068286895752,
        8.429369557916289e-08,
        -2.2476461580822615e-08,
        0.7071067690849304
      ],
      "scale": [
        -123.44303131103516,
        -123.44303131103516,
        -123.44303131103516
      ],
      "translation": [
        -0.10602610558271408,
        0.037244297564029694,
        -0.12160457670688629
      ]
    },
    {
      "mesh": 6,
      "name": "light1-3",
      "rotation": [
        0.7071068286895752,
        -2.6541379296728292e-14,
        -2.1354028945097525e-07,
        0.7071067094802856
      ],
      "scale": [
        -123.44303131103516,
        -123.44303131103516,
        -123.44303131103516
      ]
    }
  ],
  "samplers": [
    {}
  ],
  "scenes": [
    {
      "nodes": [
        0,
        1,
        2,
        3,
        4,
        5,
        6
      ]
    }
  ],
  "textures": [
    {
      "name": "贴图 #19",
      "sampler": 0,
      "source": 0
    },
    {
      "name": "taxi05Green",
      "sampler": 0,
      "source": 1
    },
    {
      "name": "贴图 #21",
      "sampler": 0,
      "source": 2
    }
  ]
}